<?xml version="1.0" encoding="UTF-8" standalone="no"?>
<!-- Created with Inkscape (http://www.inkscape.org/) -->

<svg
   width="100.68295mm"
   height="36.813774mm"
   viewBox="0 0 100.68295 36.813774"
   version="1.1"
   id="svg1"
   inkscape:version="1.3 (0e150ed6c4, 2023-07-21)"
   sodipodi:docname="drawing.svg"
   xmlns:inkscape="http://www.inkscape.org/namespaces/inkscape"
   xmlns:sodipodi="http://sodipodi.sourceforge.net/DTD/sodipodi-0.dtd"
   xmlns="http://www.w3.org/2000/svg"
   xmlns:svg="http://www.w3.org/2000/svg">
  <sodipodi:namedview
     id="namedview1"
     pagecolor="#ffffff"
     bordercolor="#000000"
     borderopacity="0.25"
     inkscape:showpageshadow="2"
     inkscape:pageopacity="0.0"
     inkscape:pagecheckerboard="0"
     inkscape:deskcolor="#d1d1d1"
     inkscape:document-units="mm"
     inkscape:zoom="1.3833223"
     inkscape:cx="64.337863"
     inkscape:cy="616.26998"
     inkscape:window-width="1366"
     inkscape:window-height="745"
     inkscape:window-x="-8"
     inkscape:window-y="-8"
     inkscape:window-maximized="1"
     inkscape:current-layer="layer1" />
  <defs
     id="defs1" />
  <g
     inkscape:label="Layer 1"
     inkscape:groupmode="layer"
     id="layer1"
     transform="translate(-10.365876,-139.75579)">
    <g
       id="g5">
      <ellipse
         style="fill:#1a1a1a;fill-opacity:1;stroke:none;stroke-width:0.229796"
         id="path1"
         cx="16.171839"
         cy="145.73009"
         rx="5.8059621"
         ry="5.1393442" />
      <rect
         style="fill:#1a1a1a;fill-opacity:1;stroke:none;stroke-width:0.369982"
         id="rect1"
         width="6.3853922"
         height="19.891724"
         x="12.96933"
         y="148.07846"
         ry="1.4344994" />
      <rect
         style="fill:#1a1a1a;fill-opacity:1;stroke:none;stroke-width:0.167816"
         id="rect2"
         width="3.5347807"
         height="8.9328327"
         x="-63.034035"
         y="138.78545"
         ry="0.27485636"
         transform="matrix(0.72572924,-0.68798043,0.43655777,0.89967623,0,0)" />
      <rect
         style="fill:#1a1a1a;fill-opacity:1;stroke:none;stroke-width:0.248"
         id="rect3"
         width="3.4427984"
         height="10.902195"
         x="69.952621"
         y="150.18317"
         ry="0.3825331"
         transform="rotate(19.925011)"
         rx="1.7213992" />
      <rect
         style="fill:#1a1a1a;stroke-width:0.204541"
         id="rect4"
         width="10.203253"
         height="2.7583961"
         x="23.046785"
         y="149.81425"
         rx="1.6649516"
         ry="0"
         transform="matrix(0.95233334,0.30505934,-0.0413331,0.99914542,0,0)" />
      <rect
         style="fill:#1a1a1a;stroke-width:0.204541"
         id="rect4-8"
         width="10.203253"
         height="2.7583961"
         x="122.86164"
         y="72.335411"
         rx="1.6649516"
         ry="0"
         transform="matrix(0.53289288,0.84618271,-0.67438009,0.73838438,0,0)" />
      <ellipse
         style="fill:#1a1a1a;fill-opacity:1;stroke:none;stroke-width:0.229796"
         id="path1-5"
         cx="37.627514"
         cy="144.89514"
         rx="5.8059621"
         ry="5.1393442" />
      <rect
         style="fill:#1a1a1a;fill-opacity:1;stroke:none;stroke-width:0.362061"
         id="rect1-0"
         width="6.1149006"
         height="19.891724"
         x="34.289757"
         y="147.24352"
         ry="1.4344994" />
      <rect
         style="fill:#1a1a1a;fill-opacity:1;stroke:none;stroke-width:0.167816"
         id="rect2-4"
         width="3.5347807"
         height="8.9328327"
         x="1.4036288"
         y="172.11394"
         ry="0.27485636"
         transform="matrix(0.86944343,-0.49403251,0.20825274,0.97807505,0,0)" />
      <rect
         style="fill:#1a1a1a;fill-opacity:1;stroke:none;stroke-width:0.248"
         id="rect3-7"
         width="3.4427984"
         height="10.902195"
         x="67.508957"
         y="154.63084"
         ry="0.3825331"
         transform="rotate(11.364174)"
         rx="1.7213992" />
      <rect
         style="fill:#1a1a1a;stroke-width:0.204541"
         id="rect4-1"
         width="10.203253"
         height="2.7583961"
         x="112.00513"
         y="88.116791"
         rx="1.6649516"
         ry="0"
         transform="matrix(0.71970174,0.69428338,-0.47834385,0.87817262,0,0)" />
      <rect
         style="fill:#1a1a1a;stroke-width:0.204541"
         id="rect4-8-7"
         width="10.203253"
         height="2.7583961"
         x="138.7095"
         y="53.042988"
         rx="1.6649516"
         ry="0"
         transform="matrix(0.53289288,0.84618271,-0.67438009,0.73838438,0,0)" />
      <ellipse
         style="fill:#1a1a1a;fill-opacity:1;stroke:none;stroke-width:0.229796"
         id="path1-5-7"
         cx="59.792782"
         cy="145.69276"
         rx="5.8059621"
         ry="5.1393442" />
      <rect
         style="fill:#1a1a1a;fill-opacity:1;stroke:none;stroke-width:0.362061"
         id="rect1-0-6"
         width="6.1149006"
         height="19.891724"
         x="56.455025"
         y="148.04114"
         ry="1.4344994" />
      <rect
         style="fill:#1a1a1a;fill-opacity:1;stroke:none;stroke-width:0.167816"
         id="rect2-4-5"
         width="3.5347807"
         height="8.9328327"
         x="117.59308"
         y="172.91341"
         ry="0.27485636"
         transform="matrix(0.99893851,0.04606356,-0.34572693,0.93833517,0,0)" />
      <rect
         style="fill:#1a1a1a;fill-opacity:1;stroke:none;stroke-width:0.248"
         id="rect3-7-0"
         width="3.4427984"
         height="10.902195"
         x="-25.739491"
         y="174.78445"
         ry="0.3825331"
         transform="rotate(-27.485593)"
         rx="1.7213992" />
      <rect
         style="fill:#1a1a1a;stroke-width:0.204541"
         id="rect4-1-7"
         width="10.203253"
         height="2.7583961"
         x="78.41758"
         y="127.7171"
         rx="1.6649516"
         ry="0"
         transform="matrix(0.92964106,0.36846642,-0.10848902,0.99409765,0,0)" />
      <rect
         style="fill:#1a1a1a;stroke-width:0.204541"
         id="rect4-8-7-4"
         width="10.203253"
         height="2.7583961"
         x="169.80354"
         y="-80.687256"
         rx="1.6649516"
         ry="0"
         transform="matrix(-0.12391928,0.9922923,-0.98958995,0.14391574,0,0)" />
      <ellipse
         style="fill:#1a1a1a;fill-opacity:1;stroke:none;stroke-width:0.229796"
         id="path1-5-7-0"
         cx="82.005959"
         cy="145.63301"
         rx="5.8059621"
         ry="5.1393442" />
      <rect
         style="fill:#1a1a1a;fill-opacity:1;stroke:none;stroke-width:0.362061"
         id="rect1-0-6-7"
         width="6.1149006"
         height="19.891724"
         x="78.668205"
         y="147.98138"
         ry="1.4344994" />
      <rect
         style="fill:#1a1a1a;fill-opacity:1;stroke:none;stroke-width:0.167816"
         id="rect2-4-5-1"
         width="3.5347807"
         height="8.9328327"
         x="115.83891"
         y="184.01663"
         ry="0.27485636"
         transform="matrix(0.99388849,-0.11038869,-0.19506075,0.98079116,0,0)" />
      <rect
         style="fill:#1a1a1a;fill-opacity:1;stroke:none;stroke-width:0.248"
         id="rect3-7-0-8"
         width="3.4427984"
         height="10.902195"
         x="39.901566"
         y="179.952"
         ry="0.3825331"
         transform="rotate(-13.25727)"
         rx="1.7213992" />
      <rect
         style="fill:#1a1a1a;stroke-width:0.204541"
         id="rect4-1-7-9"
         width="10.203253"
         height="2.7583961"
         x="101.31448"
         y="119.17013"
         rx="1.6649516"
         ry="0"
         transform="matrix(0.92964106,0.36846642,-0.10848902,0.99409765,0,0)" />
      <rect
         style="fill:#1a1a1a;stroke-width:0.204541"
         id="rect4-8-7-4-8"
         width="10.203253"
         height="2.7583961"
         x="155.03644"
         y="-133.74239"
         rx="1.6649516"
         ry="0"
         transform="matrix(-0.33725569,0.94141309,-0.99716295,-0.07527315,0,0)" />
      <ellipse
         style="fill:#1a1a1a;fill-opacity:1;stroke:none;stroke-width:0.229796"
         id="path1-5-7-0-1"
         cx="105.17319"
         cy="145.80962"
         rx="5.8059621"
         ry="5.1393442" />
      <rect
         style="fill:#1a1a1a;fill-opacity:1;stroke:none;stroke-width:0.362061"
         id="rect1-0-6-7-2"
         width="6.1149006"
         height="19.891724"
         x="101.83544"
         y="148.15799"
         ry="1.4344994" />
      <rect
         style="fill:#1a1a1a;fill-opacity:1;stroke:none;stroke-width:0.167816"
         id="rect2-4-5-1-8"
         width="3.5347807"
         height="8.9328327"
         x="110.73095"
         y="198.93243"
         ry="0.27485636"
         transform="matrix(0.95913756,-0.28294017,-0.020074,0.9997985,0,0)" />
      <rect
         style="fill:#1a1a1a;fill-opacity:1;stroke:none;stroke-width:0.248"
         id="rect3-7-0-8-3"
         width="3.4427984"
         height="10.902195"
         x="59.190647"
         y="187.07622"
         ry="0.3825331"
         transform="rotate(-14.526725)"
         rx="1.7213992" />
      <rect
         style="fill:#1a1a1a;stroke-width:0.204541"
         id="rect4-1-7-9-9"
         width="10.203253"
         height="2.7583961"
         x="194.65019"
         y="-27.770182"
         rx="1.6649516"
         ry="0"
         transform="matrix(0.44304491,0.89649942,-0.74674072,0.66511525,0,0)" />
      <rect
         style="fill:#1a1a1a;stroke-width:0.204541"
         id="rect4-8-7-4-8-6"
         width="10.203253"
         height="2.7583961"
         x="153.32773"
         y="-157.45897"
         rx="1.6649516"
         ry="0"
         transform="matrix(-0.33725569,0.94141309,-0.99716295,-0.07527315,0,0)" />
      <circle
         style="fill:#ffffff;stroke-width:0.248"
         id="path5"
         cx="20.888937"
         cy="145.16658"
         r="1.2848361" />
      <circle
         style="fill:#ffffff;stroke-width:0.248"
         id="path5-0"
         cx="42.295254"
         cy="145.4827"
         r="1.2848361" />
      <circle
         style="fill:#ffffff;stroke-width:0.248"
         id="path5-6"
         cx="64.255669"
         cy="144.95352"
         r="1.2848361" />
      <circle
         style="fill:#ffffff;stroke-width:0.248"
         id="path5-5"
         cx="86.745255"
         cy="145.74725"
         r="1.2848361" />
      <circle
         style="fill:#ffffff;stroke-width:0.248"
         id="path5-1"
         cx="109.764"
         cy="145.48267"
         r="1.2848361" />
    </g>
  </g>
</svg>
